/* XPM */
static char * cxmnaf_xpm[] = {
"32 32 3 1",
" 	c #B0B030306060",
".	c none",
"X	c #000000000000",
"   .....   .....................",
".  X..... XX....................",
".   ..... X.....................",
".    .... X.....................",
". X  X... X.....................",
". X.  ... X.....................",
". X.   .. X.....................",
". X..   . X.....................",
". X...  X X.....................",
". X....   X... .................",
". X....   X..   ................",
". X.....  X..   X...............",
"   ...... X.. X X...............",
".XXX......X.  X  ...............",
"............ XX  X..............",
"...........  X.   ..............",
"........... XX..  X.............",
"...........       X.............",
"..........  XXXX   ...         .",
".......... XX....  X...  XXXX  X",
".........  X.....   ...  X.... X",
"........    ....     ..  X.....X",
".........XXXX....XXXXX.  X......",
".......................  X... ..",
".......................       X.",
".......................  XXXX X.",
".......................  X....X.",
".......................  X......",
".......................  X......",
".......................  X......",
"......................    ......",
".......................XXXX....."};
