/* XPM */
static char * btn_scale_xpm[] = {
"32 32 4 1",
" 	c #0000FFFFFFFF",
".	c #00000000FFFF",
"X	c #FFFF00000000",
"o	c #000000000000",
"                                ",
".                               ",
".                               ",
".                               ",
".                               ",
".                               ",
".                         XXXXXX",
".                    XXXXX      ",
".                XXXX           ",
".             XXX               ",
".          XXX                  ",
".        XX                     ",
".      XX                       ",
".     X                         ",
".    X                          ",
".   X                           ",
".  X                            ",
".  X      oo                    ",
". X        o                    ",
". X        o   oo   oo o        ",
".X         o  o  o o  o         ",
".X         o  o  o o  o         ",
".X         o  o  o o  o         ",
".X        ooo  oo   ooo         ",
".X                    o         ",
".X                  oo          ",
"X                               ",
"X                               ",
"X                               ",
"X                               ",
"................................",
"                                "};
