/* XPM */
static char * magnet_xpm[] = {
"32 32 12 1",
" 	c none",
".	c #000000000000",
"X	c #00000000FFFF",
"o	c #1E1E0000E0E0",
"O	c #3D3D0000C1C1",
"+	c #5B5B0000A3A3",
"@	c #7A7A00008484",
"#	c #999900006565",
"$	c #B7B700004747",
"%	c #D6D600002828",
"&	c #FFFF00000000",
"*	c #FFFFFFFFFFFF",
"                                ",
"                                ",
"            ........            ",
"         ...XoO+@#$%...         ",
"       ..XXXXoO+@#$%&&&..       ",
"      .XXXXXXoO+@#$%&&&&&.      ",
"     .XXXXXXXoO+@#$%&&&&&&.     ",
"    .XXXXXXXXo....$&&&&&&&&.    ",
"    .XXXXXXXX.    .&&&&&&&&.    ",
"   .XXXXXXXX.      .&&&&&&&&.   ",
"   .XXXXXXX.        .&&&&&&&.   ",
"   .XXXXXXX.        .&&&&&&&.   ",
"   .XXXXXXX.        .&&&&&&&.   ",
"  .XXXXXXX.          .&&&&&&&.  ",
"  .XXXXXXX.          .&&&&&&&.  ",
"  .XXXXXXX.          .&&&&&&&.  ",
"  .XXXXXXX.          .&&&&&&&.  ",
"  .XXXXXXX.          .&&&&&&&.  ",
"  .XXXXXXX.          .&&&&&&&.  ",
"   .XXXXXXX.        .&&&&&&&.   ",
"   .XXXXXXX.        .&&&&&&&.   ",
"   .XX*XXX*.        .&***&&&.   ",
"   .XX**XX*.        .*&&&*&&.   ",
"    .X*X*X*X.      .&&***&&.    ",
"    .X*XX**X.      .&&&&&*&.    ",
"    .X*XXX*X.      .&*&&&*&.    ",
"     .*XXX*XX.    .&&&***&.     ",
"     .XXXXXXX.    .&&&&&&&.     ",
"     .........    .........     ",
"                                ",
"                                ",
"                                "};
