/* XPM */
static char * btn_elog_xpm[] = {
"32 32 6 1",
" 	c #0000FFFFFFFF",
".	c #00000000FFFF",
"X	c #FFFFFFFFFFFF",
"o	c #2F2F4F4F4F4F",
"O	c #BFBFBFBFBFBF",
"+	c #B3B3B3B3B3B3",
"  ....                      XXoo",
" ..  ..                   XXXoo ",
" ..  ..                 XXXoooo ",
" ...... ...        X XXXXooooo  ",
" ..              XXXXXXXXoooo   ",
" ..   .         XXOXXXoooo+oo   ",
"  ....        XXXOooXXooo++oo   ",
"             XXXoooXXooo++oo    ",
"          XXXXXooXXoo+++ooo     ",
"         XoXXoXoXoo+++oooo      ",
"        XXoXooXXoooooooo        ",
"       XXooXoXXooo+ooooo        ",
"      XoXoXoXoooo++oo           ",
"     XooooXXooo++ooo            ",
"     XoooXooo++ooooo            ",
"    XXooXoo++oooooo             ",
"    XoXoo++ooooooo              ",
"   XXooo+oooooooo               ",
"   X ooooo+++oo                 ",
"   Xoo+++++oo   ..              ",
"   oo ooooo     ..              ",
"   o            ..              ",
"  oo            ..  ....   .....",
" oo             .. ..  .. ..  ..",
" o              .. ..  .. ..  ..",
"o               .. ..  .. ..  ..",
"                .. ..  .. ..  ..",
"                .. ..  .. ..  ..",
"                ..  ....   .....",
"                              ..",
"                          .   ..",
"                           .... "};
