/* XPM */
static char * icon16_1_xpm[] = {
"16 16 2 1",
" 	c #0000FFFFFFFF",
".	c #000000000000",
"                ",
"     ......     ",
"   ..      ..   ",
"  .          .  ",
"  .    ..    .  ",
" .    ...     . ",
" .    ...     . ",
" .     ..     . ",
" .     ..     . ",
" .     ..     . ",
" .    ....    . ",
"  .   ....   .  ",
"  .          .  ",
"   ..      ..   ",
"     ......     ",
"                "};
