/* XPM */
static char * bobbin_xpm[] = {
"32 32 7 1",
" 	c #0000FFFFFFFF",
".	c #000000000000",
"X	c #FFFFFFFFFFFF",
"o	c #C0C0C0C0C0C0",
"O	c #808080808080",
"+	c #00000000FFFF",
"@	c #000080808080",
"       ............             ",
"    ...Xoo.OOOOXooO...          ",
"  ..XoooooO....ooooooO..        ",
" .XoXXXXoooXXXXoooXXXXoO.       ",
".Xo.OOOOXo.OOOOXo.OOOOXoO.      ",
".XoO....ooO....ooO....ooO.      ",
".oXXoooooooXXXXoooooooXOO.      ",
" .ooXXXooo.OOOOXooooXXOO.       ",
"  ..oooXXXO....XXXXXOO..        ",
"  .o..OooooooooooooO..O...      ",
"  ...o..............O.......    ",
"  .+@...o..o..o..O...@@.@.o...  ",
" ..+@.+@..........@@.@@.@@...o. ",
".O.@@.+@.@+@.@+@.@@@.@@.@@.@+...",
".O..@.@@.@+@.@+@.@@@.@..@@.@+@..",
".o.o...@.@@@.@@@.@@...O.@@.@+@@.",
".oO..o..............O..O...@@@..",
" .XXO...o..o..o..O...Ooo....@.o.",
"  ..XXXO..........Oooo..  ......",
"    ...XXXXXXXXXXXo...   ..o..@.",
"       ............    ..o...+@.",
"                      ....+@.+@.",
"                      .o.@+@.@@.",
"                      ...@+@.@..",
"                      ..o.@...o.",
"                      .+...o... ",
"                      .+@....   ",
"                      .@@..     ",
"                      ..@.      ",
"                      ....      ",
"                       .o.      ",
"                        ..      "};
