/* XPM */
static char * film_xpm[] = {
"32 32 3 1",
" 	c #0000FFFFFFFF",
".	c #000000000000",
"X	c #A0A0A0A0A0A0",
"                                ",
"                                ",
".   .                      .   .",
".....                      .....",
"................................",
"................................",
"................................",
".....XXXXXXXXXXXXXXXXXXXXXX.....",
".   .XXXXXXXXXXXXXXXXXXXXXX.   .",
".   .XXXXXXXXXXXXXXXXXXXXXX.   .",
".....XXXXXXXXXXXXXXXXXXXXXX.....",
".....XXXXXXXXXXXXXXXXXXXXXX.....",
".....XXXXXXXXXXXXXXXXXXXXXX.....",
".....XXXXXXXXXXXXXXXXXXXXXX.....",
".....XXXXXXXXXXXXXXXXXXXXXX.....",
".   .XXXXXXXXXXXXXXXXXXXXXX.   .",
".   .XXXXXXXXXXXXXXXXXXXXXX.   .",
".....XXXXXXXXXXXXXXXXXXXXXX.....",
".....XXXXXXXXXXXXXXXXXXXXXX.....",
".....XXXXXXXXXXXXXXXXXXXXXX.....",
".....XXXXXXXXXXXXXXXXXXXXXX.....",
".....XXXXXXXXXXXXXXXXXXXXXX.....",
".   .XXXXXXXXXXXXXXXXXXXXXX.   .",
".   .XXXXXXXXXXXXXXXXXXXXXX.   .",
".....XXXXXXXXXXXXXXXXXXXXXX.....",
"................................",
"................................",
"................................",
".....                      .....",
".   .                      .   .",
"                                ",
"                                "};
